<?xml version="1.0" encoding="UTF-8" standalone="no"?>
<!DOCTYPE svg PUBLIC "-//W3C//DTD SVG 1.1//EN" "http://www.w3.org/Graphics/SVG/1.1/DTD/svg11.dtd">
<svg width="100%" height="100%" viewBox="0 0 165 83" version="1.1" xmlns="http://www.w3.org/2000/svg" xmlns:xlink="http://www.w3.org/1999/xlink" xml:space="preserve" xmlns:serif="http://www.serif.com/" style="fill-rule:evenodd;clip-rule:evenodd;stroke-miterlimit:10;">
    <g id="Calque_1-2">
        <g>
            <g>
                <path d="M0,33.75L11.57,33.75C14.09,33.75 15.98,34.37 17.23,35.61C18.49,36.85 19.11,38.62 19.11,40.91C19.11,43.2 18.43,45.11 17.06,46.44C15.69,47.77 13.61,48.43 10.8,48.43L6.99,48.43L6.99,57.09L0,57.09L0,33.74L0,33.75ZM6.99,43.7L8.7,43.7C10.04,43.7 10.98,43.46 11.53,42.97C12.07,42.49 12.34,41.87 12.34,41.12C12.34,40.37 12.1,39.77 11.63,39.26C11.16,38.75 10.27,38.5 8.97,38.5L6.99,38.5L6.99,43.71L6.99,43.7Z" style="fill:white;fill-rule:nonzero;"/>
                <path d="M20.48,33.75L28.21,33.75L32.75,41.63L37.3,33.75L44.99,33.75L36.23,47.32L36.23,57.1L29.25,57.1L29.25,47.32L20.48,33.75Z" style="fill:white;fill-rule:nonzero;"/>
                <path d="M47.32,57.1L47.32,33.75L58.92,33.75C61.07,33.75 62.71,33.94 63.85,34.32C64.99,34.7 65.9,35.41 66.6,36.45C67.3,37.49 67.64,38.75 67.64,40.23C67.64,41.53 67.37,42.64 66.84,43.58C66.31,44.52 65.57,45.28 64.64,45.87C64.05,46.24 63.23,46.55 62.2,46.79C63.03,47.08 63.63,47.36 64.01,47.65C64.27,47.84 64.64,48.25 65.12,48.88C65.61,49.51 65.93,49.99 66.09,50.33L69.46,57.1L61.6,57.1L57.88,49.96C57.41,49.04 56.99,48.44 56.62,48.16C56.12,47.8 55.55,47.62 54.91,47.62L54.3,47.62L54.3,57.1L47.31,57.1L47.32,57.1ZM54.3,43.21L57.24,43.21C57.56,43.21 58.17,43.1 59.08,42.89C59.54,42.79 59.92,42.55 60.21,42.16C60.5,41.77 60.65,41.32 60.65,40.81C60.65,40.06 60.42,39.48 59.96,39.07C59.5,38.66 58.63,38.46 57.36,38.46L54.3,38.46L54.3,43.21Z" style="fill:white;fill-rule:nonzero;"/>
                <path d="M85.55,53.25L77.65,53.25L76.55,57.1L69.44,57.1L77.91,33.75L85.5,33.75L93.96,57.1L86.67,57.1L85.54,53.25L85.55,53.25ZM84.11,48.2L81.62,39.81L79.16,48.2L84.11,48.2Z" style="fill:white;fill-rule:nonzero;"/>
                <path d="M96.1,33.75L105.25,33.75L108.78,47.96L112.28,33.75L121.43,33.75L121.43,57.1L115.73,57.1L115.73,39.29L111.34,57.1L106.18,57.1L101.8,39.29L101.8,57.1L96.1,57.1L96.1,33.75Z" style="fill:white;fill-rule:nonzero;"/>
                <path d="M143.84,33.75L154.18,33.75C156.22,33.75 157.87,34.04 159.12,34.61C160.37,35.18 161.41,36.01 162.23,37.08C163.05,38.15 163.64,39.4 164.01,40.82C164.38,42.24 164.56,43.75 164.56,45.34C164.56,47.84 164.29,49.77 163.74,51.15C163.19,52.53 162.43,53.68 161.46,54.61C160.49,55.54 159.44,56.16 158.33,56.47C156.8,56.89 155.42,57.11 154.18,57.11L143.84,57.11L143.84,33.75ZM150.8,39.04L150.8,51.8L152.51,51.8C153.96,51.8 155,51.63 155.61,51.3C156.22,50.97 156.71,50.38 157.05,49.55C157.39,48.72 157.57,47.37 157.57,45.5C157.57,43.03 157.18,41.33 156.4,40.42C155.62,39.51 154.33,39.05 152.53,39.05L150.79,39.05L150.8,39.04Z" style="fill:white;fill-rule:nonzero;"/>
            </g>
            <path d="M119.27,20.52L146.69,26.03L133.76,12.5L119.27,20.52Z" style="fill:rgb(18,89,156);fill-rule:nonzero;"/>
            <g>
                <path d="M137.38,71.98C136.59,73.84 135.94,75.42 135.45,76.71C135.42,76.78 135.33,77.01 135.18,77.4C135.03,77.79 134.93,78.04 134.88,78.17C134.83,78.3 134.75,78.53 134.64,78.86C134.53,79.19 134.45,79.45 134.41,79.65C134.37,79.84 134.33,80.08 134.28,80.35C134.23,80.62 134.2,80.87 134.19,81.1C134.63,80.83 135.41,80.15 136.53,79.05C137.65,77.95 138.71,76.83 139.71,75.66C139.79,75.56 139.91,75.5 140.06,75.47C140.21,75.44 140.35,75.47 140.47,75.54C140.59,75.61 140.66,75.71 140.69,75.83C140.72,75.95 140.69,76.07 140.61,76.17C140.19,76.67 139.33,77.62 138.03,79.03C137.21,79.91 136.49,80.62 135.87,81.16C135.58,81.4 135.33,81.59 135.13,81.74C134.92,81.89 134.66,82.03 134.35,82.18C134.03,82.33 133.71,82.41 133.4,82.44C132.74,82.5 132.17,82.44 131.7,82.22C131.23,82.01 130.92,81.65 130.78,81.14C130.71,80.87 130.68,80.58 130.67,80.28C130.67,79.99 130.69,79.68 130.76,79.36C130.83,79.04 130.9,78.76 130.97,78.52C131.04,78.28 131.13,77.99 131.24,77.65C131.6,76.61 132.07,75.45 132.67,74.18C132.74,74.05 133.1,73.25 133.77,71.78C134.44,70.31 135.13,68.82 135.84,67.3C136.55,65.78 137.12,64.62 137.53,63.82C136.91,64.15 136.16,64.76 135.29,65.65C133.99,66.95 132.48,68.78 130.76,71.14C128.81,73.8 126.99,76.54 125.28,79.36L125.28,79.47C125.17,79.53 125.08,79.55 125,79.55C124.64,79.55 124.3,79.53 123.98,79.5C123.66,79.47 123.32,79.41 122.97,79.32C122.62,79.23 122.32,79.1 122.09,78.92C121.85,78.74 121.7,78.53 121.63,78.28C121.56,78.01 121.53,77.72 121.52,77.42C121.52,77.13 121.54,76.82 121.61,76.5C121.68,76.18 121.75,75.9 121.82,75.66C121.89,75.42 121.98,75.13 122.09,74.79C122.45,73.76 122.92,72.61 123.52,71.33C123.59,71.2 123.97,70.37 124.66,68.84C125.35,67.31 126.06,65.77 126.78,64.23C127.5,62.69 128.07,61.53 128.48,60.77C128.28,60.85 128.06,60.98 127.8,61.14C127.19,61.54 126.5,62.16 125.72,62.98C124.38,64.42 122.87,66.43 121.17,69.01C119.69,71.25 118.19,73.73 116.66,76.46C116.32,77.34 116.02,78.14 115.78,78.86C115.53,79.59 115.36,80.16 115.24,80.58C115.13,81 115.04,81.36 114.97,81.65C114.9,81.95 114.87,82.15 114.87,82.26L114.85,82.41C113.42,82.17 112.57,81.2 112.31,79.5C112.34,78.77 112.49,77.92 112.78,76.96C113.07,76 113.41,75.03 113.83,74.06C114.25,73.1 114.7,72.09 115.2,71.03C115.7,69.97 116.19,68.97 116.68,68.02C117.17,67.07 117.61,66.15 118,65.27C118.39,64.39 118.7,63.61 118.93,62.95C119.16,62.29 119.26,61.73 119.23,61.28C119.2,60.83 119.01,60.54 118.66,60.42C118.39,60.33 117.96,60.39 117.36,60.6C116.76,60.81 116.09,61.12 115.36,61.53C114.63,61.94 113.89,62.44 113.14,63.03C112.39,63.62 111.71,64.22 111.12,64.84C110.53,65.46 110.08,66.1 109.78,66.78C109.48,67.45 109.4,68.06 109.56,68.59C109.61,68.73 109.77,68.81 110.03,68.82C110.29,68.84 110.5,68.8 110.66,68.71C110.92,68.59 111.2,68.41 111.48,68.17C111.76,67.93 112.01,67.71 112.21,67.51C112.41,67.31 112.67,67.14 113,66.98C113.33,66.82 113.69,66.74 114.07,66.73C115.13,66.85 115.66,67.16 115.68,67.66C115.71,68.15 115.28,68.64 114.41,69.12C113.3,69.76 112.02,70.08 110.58,70.09C109.8,70.09 109.04,70 108.32,69.79C107.62,69.61 107.1,69.35 106.77,68.99C106.44,68.63 106.29,68.24 106.33,67.81C106.37,67.38 106.5,66.96 106.71,66.55C106.92,66.14 107.2,65.75 107.54,65.37C108.81,63.9 110.57,62.58 112.82,61.43C115.03,60.29 117.03,59.66 118.82,59.54C120.69,59.42 121.84,59.93 122.29,61.06C122.75,62.2 122.43,63.9 121.32,66.16C121.24,66.34 121.15,66.52 121.04,66.71C122.28,64.95 123.42,63.52 124.45,62.41C125.4,61.39 126.27,60.65 127.05,60.19C127.83,59.73 128.57,59.54 129.25,59.6L129.25,59.66C129.53,59.56 129.86,59.69 130.26,60.06C130.66,60.43 130.91,60.74 131.01,60.99C131.24,61.52 131.24,62.1 131.01,62.73C130.97,62.81 130.68,63.47 130.14,64.69C129.28,66.64 128.64,68.11 128.21,69.1C127.42,70.96 126.77,72.54 126.28,73.83C125.72,75.29 125.39,76.26 125.27,76.72C126.69,74.5 128.06,72.49 129.38,70.68C131.14,68.27 132.69,66.39 134.03,65.06C134.84,64.25 135.56,63.64 136.21,63.22C137,62.73 137.73,62.51 138.37,62.56C138.65,62.44 138.99,62.56 139.39,62.93C139.79,63.3 140.05,63.61 140.15,63.87C140.37,64.4 140.37,64.98 140.15,65.61C140.11,65.69 139.82,66.35 139.28,67.57C138.42,69.52 137.78,70.99 137.36,71.98L137.38,71.98Z" style="fill:rgb(0,135,202);fill-rule:nonzero;"/>
                <path d="M151.49,73.24C151.63,73.22 151.75,73.24 151.87,73.28C151.98,73.33 152.05,73.4 152.09,73.49C152.12,73.58 152.11,73.67 152.04,73.75C151.15,74.75 150.24,75.64 149.31,76.4C148.38,77.16 147.61,77.6 147,77.7C145.9,77.88 145.12,77.82 144.66,77.5C144.2,77.18 143.98,76.69 144,76.03C143.92,76.14 143.81,76.3 143.66,76.51C143.51,76.72 143.39,76.88 143.3,77.01C143.21,77.13 143.1,77.26 142.97,77.4C142.84,77.53 142.72,77.63 142.59,77.69C142.46,77.75 142.34,77.78 142.2,77.77L141.6,77.77C141.41,77.77 141.24,77.74 141.08,77.72C140.92,77.7 140.78,77.67 140.65,77.65C140.52,77.63 140.41,77.59 140.3,77.55C140.19,77.51 140.1,77.47 140.02,77.45C139.94,77.42 139.86,77.39 139.79,77.35C139.72,77.31 139.66,77.28 139.62,77.25C139.58,77.22 139.54,77.2 139.49,77.17C139.44,77.14 139.42,77.12 139.42,77.11C139.04,76.85 138.81,76.43 138.74,75.83C138.67,75.23 138.74,74.59 138.94,73.89C139.14,73.19 139.46,72.46 139.87,71.71C140.29,70.96 140.77,70.29 141.33,69.71C141.57,69.45 141.89,69.2 142.28,68.94C142.68,68.68 143.11,68.47 143.59,68.29C144.07,68.11 144.52,68.01 144.95,67.98C145.38,67.95 145.76,68.05 146.09,68.29C146.42,68.53 146.63,68.91 146.72,69.44C146.98,68.96 147.22,68.61 147.41,68.39C147.57,68.19 147.79,68.13 148.08,68.22C148.36,68.31 148.63,68.45 148.88,68.62C149.13,68.8 149.3,68.94 149.38,69.05C149.63,69.4 149.67,69.79 149.5,70.22C148.07,73.4 147.28,75.39 147.12,76.19C147.03,76.63 147.07,76.85 147.24,76.85C148.25,76.38 149.55,75.23 151.15,73.41C151.22,73.33 151.32,73.27 151.46,73.25L151.49,73.24ZM142.15,76.67C142.26,76.75 142.41,76.69 142.61,76.52C142.81,76.34 143.03,76.08 143.29,75.74C143.55,75.4 143.79,75.03 144.03,74.65C144.28,74.27 144.52,73.86 144.75,73.44C144.88,73.13 145.16,72.53 145.58,71.66C145.25,71.66 145.14,71.56 145.24,71.34C145.56,70.89 145.75,70.49 145.83,70.14C145.91,69.79 145.89,69.54 145.8,69.39C145.71,69.24 145.58,69.14 145.42,69.09C145,69.23 144.49,69.81 143.89,70.82C143.29,71.84 142.81,72.93 142.45,74.11C142.09,75.29 141.98,76.14 142.14,76.67L142.15,76.67Z" style="fill:rgb(0,135,202);fill-rule:nonzero;"/>
                <path d="M157.3,72.55C157.43,72.59 157.53,72.65 157.59,72.74C157.65,72.83 157.65,72.92 157.59,73C156.86,73.9 156.22,74.66 155.65,75.27C155.09,75.88 154.62,76.36 154.24,76.69C153.86,77.03 153.5,77.28 153.16,77.46C152.82,77.64 152.54,77.74 152.34,77.78C152.14,77.82 151.87,77.85 151.56,77.86C151.32,77.86 151.08,77.83 150.85,77.78C150.61,77.73 150.36,77.62 150.1,77.46C149.83,77.3 149.63,77.08 149.48,76.79C149.33,76.5 149.23,76.13 149.17,75.68C149.11,75.22 149.17,74.67 149.34,74.03C149.47,73.48 149.74,72.7 150.13,71.69C150.53,70.69 150.89,69.82 151.22,69.08L151.7,67.99C151.81,67.94 152.13,67.99 152.67,68.12C153.21,68.25 153.72,68.45 154.19,68.7C154.66,68.95 154.84,69.2 154.74,69.43C154.51,69.87 154.28,70.36 154.03,70.9C153.78,71.44 153.54,72.02 153.3,72.64C153.06,73.26 152.86,73.83 152.7,74.35C152.55,74.87 152.45,75.32 152.41,75.71C152.37,76.1 152.44,76.34 152.61,76.42C152.82,76.5 153.32,76.18 154.11,75.47C154.9,74.76 155.75,73.85 156.66,72.75C156.83,72.55 157.05,72.48 157.32,72.56L157.3,72.55ZM153.15,67.02C152.91,66.96 152.74,66.84 152.63,66.67C152.52,66.5 152.52,66.34 152.61,66.17L153.62,64.39C153.71,64.22 153.88,64.1 154.12,64.03C154.36,63.96 154.6,63.95 154.83,64.02L156.26,64.41C156.51,64.48 156.69,64.6 156.79,64.77C156.89,64.93 156.89,65.1 156.79,65.27L155.8,67.05C155.71,67.21 155.54,67.34 155.29,67.41C155.05,67.48 154.8,67.48 154.57,67.41L153.14,67.02L153.15,67.02Z" style="fill:rgb(0,135,202);fill-rule:nonzero;"/>
                <path d="M161.66,74.91C161.79,74.88 161.92,74.89 162.04,74.94C162.16,74.99 162.24,75.06 162.28,75.16C162.32,75.25 162.31,75.34 162.24,75.42C161.87,75.86 161.52,76.27 161.19,76.64C161.04,76.78 160.84,76.99 160.57,77.28C160.3,77.57 160.08,77.8 159.89,77.98C159.71,78.16 159.48,78.36 159.21,78.58C158.94,78.8 158.65,78.98 158.34,79.13C158.03,79.28 157.69,79.39 157.34,79.46C156.89,79.54 156.51,79.55 156.2,79.5C155.89,79.45 155.63,79.35 155.42,79.24C155.21,79.12 155.05,78.96 154.94,78.75C154.83,78.54 154.76,78.33 154.71,78.11C154.66,77.89 154.65,77.66 154.67,77.4C154.69,77.14 154.72,76.9 154.77,76.67C154.82,76.45 154.87,76.23 154.94,76.01C156.77,70.03 158.17,66.1 159.15,64.21C159.31,63.99 159.56,63.93 159.9,64.02C160.24,64.11 160.58,64.27 160.92,64.48C161.26,64.69 161.46,64.85 161.53,64.96C161.79,65.37 161.85,65.81 161.71,66.29C161.58,66.65 161.3,67.39 160.87,68.51C160.44,69.63 160.06,70.65 159.73,71.55C159.4,72.45 159.06,73.42 158.71,74.46C158.36,75.5 158.11,76.37 157.98,77.06C157.84,77.75 157.83,78.19 157.95,78.39C158.89,77.81 160.03,76.71 161.38,75.09C161.45,75.01 161.55,74.95 161.68,74.93L161.66,74.91Z" style="fill:rgb(0,135,202);fill-rule:nonzero;"/>
            </g>
            <g>
                <path d="M129.67,53.23L146.69,26.03L133.76,12.5L129.67,53.23Z" style="fill:rgb(99,182,223);fill-opacity:0.6;fill-rule:nonzero;"/>
                <path d="M119.27,20.52L129.67,53.23L133.76,12.5L119.27,20.52Z" style="fill:rgb(0,135,202);fill-opacity:0.6;fill-rule:nonzero;"/>
                <circle cx="135.72" cy="4.26" r="4.26" style="fill:white;"/>
            </g>
            <path d="M129.67,53.23L133.76,12.5" style="fill:none;fill-rule:nonzero;stroke:white;stroke-opacity:0.5;stroke-width:0.75px;"/>
        </g>
    </g>
</svg>
